<?xml version="1.0" encoding="UTF-8" standalone="no"?>
<!DOCTYPE svg PUBLIC "-//W3C//DTD SVG 1.1//EN"
 "http://www.w3.org/Graphics/SVG/1.1/DTD/svg11.dtd">
<!-- Generated by graphviz version 2.26.3 (20100126.1600)
 -->
<!-- Title: ERDiagram Pages: 1 -->
<svg width="236pt" height="102pt"
 viewBox="0.00 0.00 236.00 102.00" xmlns="http://www.w3.org/2000/svg" xmlns:xlink="http://www.w3.org/1999/xlink">
<g id="graph1" class="graph" transform="scale(1 1) rotate(0) translate(4 98)">
<title>ERDiagram</title>
<polygon fill="white" stroke="white" points="-4,5 -4,-98 233,-98 233,5 -4,5"/>
<!-- エンティティ名 -->
<g id="node1" class="node"><title>エンティティ名</title>
<polygon fill="#a3a3a3" stroke="#a3a3a3" points="1,-75 1,-94 228,-94 228,-75 1,-75"/>
<polygon fill="none" stroke="black" points="1,-75 1,-94 228,-94 228,-75 1,-75"/>
<text text-anchor="start" x="69.5" y="-81.7" font-family="ipagp" font-size="12.00">エンティティ名</text>
<polygon fill="none" stroke="black" points="1,-37 1,-75 228,-75 228,-37 1,-37"/>
<text text-anchor="start" x="6" y="-61.2" font-family="ipagp" font-size="12.00">主キーカラム1</text>
<text text-anchor="start" x="91" y="-61.2" font-family="ipagp" font-size="12.00"> </text>
<text text-anchor="start" x="100" y="-61.6667" font-family="ipagp" font-size="10.00">[ラベルを表示します]</text>
<text text-anchor="start" x="6" y="-45.2" font-family="ipagp" font-size="12.00">主キーカラム2</text>
<polygon fill="none" stroke="black" points="1,1 1,-37 228,-37 228,1 1,1"/>
<text text-anchor="start" x="6" y="-23.2" font-family="ipagp" font-size="12.00">外部キーカラム</text>
<text text-anchor="start" x="6" y="-7.2" font-family="ipagp" font-size="12.00">必須カラム</text>
</g>
</g>
</svg>
