<?xml version="1.0" encoding="UTF-8" standalone="no"?>
<!DOCTYPE svg PUBLIC "-//W3C//DTD SVG 1.1//EN"
 "http://www.w3.org/Graphics/SVG/1.1/DTD/svg11.dtd">
<!-- Generated by graphviz version 2.26.3 (20100126.1600)
 -->
<!-- Title: ERDiagram Pages: 1 -->
<svg width="294pt" height="316pt"
 viewBox="0.00 0.00 294.00 316.00" xmlns="http://www.w3.org/2000/svg" xmlns:xlink="http://www.w3.org/1999/xlink">
<g id="graph1" class="graph" transform="scale(1 1) rotate(0) translate(4 312)">
<title>ERDiagram</title>
<polygon fill="white" stroke="white" points="-4,5 -4,-312 291,-312 291,5 -4,5"/>
<!-- 顧客 -->
<g id="node1" class="node"><title>顧客</title>
<polygon fill="#a3a3a3" stroke="#a3a3a3" points="0,-289 0,-308 144,-308 144,-289 0,-289"/>
<polygon fill="none" stroke="black" points="0,-289 0,-308 144,-308 144,-289 0,-289"/>
<text text-anchor="start" x="59" y="-295.7" font-family="ipagp" font-size="12.00">顧客</text>
<polygon fill="none" stroke="black" points="0,-267 0,-289 144,-289 144,-267 0,-267"/>
<text text-anchor="start" x="5" y="-275.2" font-family="ipagp" font-size="12.00">顧客番号</text>
<text text-anchor="start" x="57" y="-275.2" font-family="ipagp" font-size="12.00"> </text>
<text text-anchor="start" x="94.5" y="-275.667" font-family="ipagp" font-size="10.00">[string]</text>
<polygon fill="none" stroke="black" points="0,-149 0,-267 144,-267 144,-149 0,-149"/>
<text text-anchor="start" x="5" y="-253.2" font-family="ipagp" font-size="12.00">顧客名</text>
<text text-anchor="start" x="44" y="-253.2" font-family="ipagp" font-size="12.00"> </text>
<text text-anchor="start" x="104" y="-253.667" font-family="ipagp" font-size="10.00">[string]</text>
<text text-anchor="start" x="5" y="-237.2" font-family="ipagp" font-size="12.00">郵便番号 </text>
<text text-anchor="start" x="104" y="-237.667" font-family="ipagp" font-size="10.00">[string]</text>
<text text-anchor="start" x="5" y="-221.2" font-family="ipagp" font-size="12.00">住所 </text>
<text text-anchor="start" x="104" y="-221.667" font-family="ipagp" font-size="10.00">[string]</text>
<text text-anchor="start" x="5" y="-205.2" font-family="ipagp" font-size="12.00">電話番号 </text>
<text text-anchor="start" x="104" y="-205.667" font-family="ipagp" font-size="10.00">[string]</text>
<text text-anchor="start" x="5" y="-189.2" font-family="ipagp" font-size="12.00">メールアドレス </text>
<text text-anchor="start" x="104" y="-189.667" font-family="ipagp" font-size="10.00">[string]</text>
<text text-anchor="start" x="5" y="-173.2" font-family="ipagp" font-size="12.00">ログインID</text>
<text text-anchor="start" x="69" y="-173.2" font-family="ipagp" font-size="12.00"> </text>
<text text-anchor="start" x="104" y="-173.667" font-family="ipagp" font-size="10.00">[string]</text>
<text text-anchor="start" x="5" y="-157.2" font-family="ipagp" font-size="12.00">パスワード</text>
<text text-anchor="start" x="69" y="-157.2" font-family="ipagp" font-size="12.00"> </text>
<text text-anchor="start" x="104" y="-157.667" font-family="ipagp" font-size="10.00">[string]</text>
</g>
<!-- 注文 -->
<g id="node2" class="node"><title>注文</title>
<polygon fill="#a3a3a3" stroke="#a3a3a3" points="180,-241 180,-260 286,-260 286,-241 180,-241"/>
<polygon fill="none" stroke="black" points="180,-241 180,-260 286,-260 286,-241 180,-241"/>
<text text-anchor="start" x="220" y="-247.7" font-family="ipagp" font-size="12.00">注文</text>
<polygon fill="none" stroke="black" points="180,-219 180,-241 286,-241 286,-219 180,-219"/>
<text text-anchor="start" x="185" y="-227.2" font-family="ipagp" font-size="12.00">注文番号</text>
<text text-anchor="start" x="237" y="-227.2" font-family="ipagp" font-size="12.00"> </text>
<text text-anchor="start" x="246" y="-227.667" font-family="ipagp" font-size="10.00">[string]</text>
<polygon fill="none" stroke="black" points="180,-165 180,-219 286,-219 286,-165 180,-165"/>
<text text-anchor="start" x="185" y="-205.2" font-family="ipagp" font-size="12.00">注文日 </text>
<text text-anchor="start" x="246" y="-205.667" font-family="ipagp" font-size="10.00">[string]</text>
<text text-anchor="start" x="185" y="-189.2" font-family="ipagp" font-size="12.00">顧客番号</text>
<text text-anchor="start" x="237" y="-189.2" font-family="ipagp" font-size="12.00"> </text>
<text text-anchor="start" x="246" y="-189.667" font-family="ipagp" font-size="10.00">[string]</text>
<text text-anchor="start" x="185" y="-173.2" font-family="ipagp" font-size="12.00">送料 </text>
<text text-anchor="start" x="246" y="-173.667" font-family="ipagp" font-size="10.00">[string]</text>
</g>
<!-- 顧客&#45;&gt;注文 -->
<g id="edge2" class="edge"><title>顧客&#45;&gt;注文</title>
<path fill="none" stroke="black" d="M144.024,-221.842C156.08,-220.644 168.393,-219.421 179.864,-218.281"/>
<text text-anchor="middle" x="171.264" y="-220.482" font-family="ipagp" font-size="11.00">0..*</text>
<text text-anchor="middle" x="152.624" y="-213.841" font-family="ipagp" font-size="11.00">1</text>
</g>
<!-- 注文明細 -->
<g id="node3" class="node"><title>注文明細</title>
<polygon fill="#a3a3a3" stroke="#a3a3a3" points="16,-59 16,-78 129,-78 129,-59 16,-59"/>
<polygon fill="none" stroke="black" points="16,-59 16,-78 129,-78 129,-59 16,-59"/>
<text text-anchor="start" x="46.5" y="-65.7" font-family="ipagp" font-size="12.00">注文明細</text>
<polygon fill="none" stroke="black" points="16,-37 16,-59 129,-59 129,-37 16,-37"/>
<text text-anchor="start" x="21" y="-45.2" font-family="ipagp" font-size="12.00">注文番号</text>
<text text-anchor="start" x="73" y="-45.2" font-family="ipagp" font-size="12.00"> </text>
<text text-anchor="start" x="87" y="-45.6667" font-family="ipagp" font-size="10.00">[string]</text>
<polygon fill="none" stroke="black" points="16,1 16,-37 129,-37 129,1 16,1"/>
<text text-anchor="start" x="21" y="-23.2" font-family="ipagp" font-size="12.00">商品番号</text>
<text text-anchor="start" x="73" y="-23.2" font-family="ipagp" font-size="12.00"> </text>
<text text-anchor="start" x="85.5" y="-23.6667" font-family="ipagp" font-size="10.00">[string]</text>
<text text-anchor="start" x="21" y="-7.2" font-family="ipagp" font-size="12.00">注文数量 </text>
<text text-anchor="start" x="82" y="-7.66667" font-family="ipagp" font-size="10.00">[integer]</text>
</g>
<!-- 注文明細&#45;&gt;注文 -->
<g id="edge4" class="edge"><title>注文明細&#45;&gt;注文</title>
<path fill="none" stroke="black" d="M109.985,-78.0832C121.032,-89.5802 133.066,-102.231 144,-114 159.573,-130.763 176.412,-149.366 191.208,-165.88"/>
<text text-anchor="middle" x="182.01" y="-159.056" font-family="ipagp" font-size="11.00">1</text>
<text text-anchor="middle" x="119.31" y="-78.7955" font-family="ipagp" font-size="11.00">1..*</text>
</g>
<!-- 商品 -->
<g id="node4" class="node"><title>商品</title>
<polygon fill="#a3a3a3" stroke="#a3a3a3" points="180,-59 180,-78 286,-78 286,-59 180,-59"/>
<polygon fill="none" stroke="black" points="180,-59 180,-78 286,-78 286,-59 180,-59"/>
<text text-anchor="start" x="220" y="-65.7" font-family="ipagp" font-size="12.00">商品</text>
<polygon fill="none" stroke="black" points="180,-37 180,-59 286,-59 286,-37 180,-37"/>
<text text-anchor="start" x="185" y="-45.2" font-family="ipagp" font-size="12.00">商品番号</text>
<text text-anchor="start" x="237" y="-45.2" font-family="ipagp" font-size="12.00"> </text>
<text text-anchor="start" x="246" y="-45.6667" font-family="ipagp" font-size="10.00">[string]</text>
<polygon fill="none" stroke="black" points="180,1 180,-37 286,-37 286,1 180,1"/>
<text text-anchor="start" x="185" y="-23.2" font-family="ipagp" font-size="12.00">商品名 </text>
<text text-anchor="start" x="242.5" y="-23.6667" font-family="ipagp" font-size="10.00">[string]</text>
<text text-anchor="start" x="185" y="-7.2" font-family="ipagp" font-size="12.00">価格 </text>
<text text-anchor="start" x="242.5" y="-7.66667" font-family="ipagp" font-size="10.00">[string]</text>
</g>
<!-- 注文明細&#45;&gt;商品 -->
<g id="edge6" class="edge"><title>注文明細&#45;&gt;商品</title>
<path fill="none" stroke="black" d="M128.763,-39C145.421,-39 163.568,-39 179.983,-39"/>
<text text-anchor="middle" x="170.92" y="-40.3262" font-family="ipagp" font-size="11.00">1</text>
<text text-anchor="middle" x="137.826" y="-31.8738" font-family="ipagp" font-size="11.00">0..*</text>
</g>
</g>
</svg>
