<?xml version="1.0" encoding="UTF-8" standalone="no"?>
<!DOCTYPE svg PUBLIC "-//W3C//DTD SVG 1.1//EN"
 "http://www.w3.org/Graphics/SVG/1.1/DTD/svg11.dtd">
<!-- Generated by graphviz version 2.26.3 (20100126.1600)
 -->
<!-- Title: ERDiagram Pages: 1 -->
<svg width="356pt" height="70pt"
 viewBox="0.00 0.00 356.00 70.00" xmlns="http://www.w3.org/2000/svg" xmlns:xlink="http://www.w3.org/1999/xlink">
<g id="graph1" class="graph" transform="scale(1 1) rotate(0) translate(4 66)">
<title>ERDiagram</title>
<polygon fill="white" stroke="white" points="-4,5 -4,-66 353,-66 353,5 -4,5"/>
<!-- エンティティ1 -->
<g id="node1" class="node"><title>エンティティ1</title>
<polygon fill="#a3a3a3" stroke="#a3a3a3" points="0,-43 0,-62 92,-62 92,-43 0,-43"/>
<polygon fill="none" stroke="black" points="0,-43 0,-62 92,-62 92,-43 0,-43"/>
<text text-anchor="start" x="3.5" y="-49.7" font-family="ipagp" font-size="12.00">エンティティ1</text>
<polygon fill="none" stroke="black" points="0,-21 0,-43 92,-43 92,-21 0,-21"/>
<text text-anchor="start" x="5" y="-29.2" font-family="ipagp" font-size="12.00">項目1</text>
<text text-anchor="start" x="39" y="-29.2" font-family="ipagp" font-size="12.00"> </text>
<text text-anchor="start" x="51" y="-29.6667" font-family="ipagp" font-size="10.00">[string]</text>
<polygon fill="none" stroke="black" points="0,1 0,-21 92,-21 92,1 0,1"/>
<text text-anchor="start" x="5" y="-7.2" font-family="ipagp" font-size="12.00">項目2</text>
</g>
<!-- エンティティ2 -->
<g id="node2" class="node"><title>エンティティ2</title>
<polygon fill="#a3a3a3" stroke="#a3a3a3" points="128,-43 128,-62 220,-62 220,-43 128,-43"/>
<polygon fill="none" stroke="black" points="128,-43 128,-62 220,-62 220,-43 128,-43"/>
<text text-anchor="start" x="131.5" y="-49.7" font-family="ipagp" font-size="12.00">エンティティ2</text>
<polygon fill="none" stroke="black" points="128,-21 128,-43 220,-43 220,-21 128,-21"/>
<text text-anchor="start" x="133" y="-29.2" font-family="ipagp" font-size="12.00">項目1</text>
<text text-anchor="start" x="167" y="-29.2" font-family="ipagp" font-size="12.00"> </text>
<text text-anchor="start" x="179" y="-29.6667" font-family="ipagp" font-size="10.00">[string]</text>
<polygon fill="none" stroke="black" points="128,1 128,-21 220,-21 220,1 128,1"/>
<text text-anchor="start" x="133" y="-7.2" font-family="ipagp" font-size="12.00">項目2</text>
</g>
<!-- エンティティ1&#45;&gt;エンティティ2 -->
<g id="edge2" class="edge"><title>エンティティ1&#45;&gt;エンティティ2</title>
<path fill="none" stroke="black" d="M92.2109,-31C103.812,-31 116.259,-31 127.857,-31"/>
</g>
<!-- エンティティ3 -->
<g id="node3" class="node"><title>エンティティ3</title>
<polygon fill="#a3a3a3" stroke="#a3a3a3" points="256,-40 256,-59 348,-59 348,-40 256,-40"/>
<polygon fill="none" stroke="black" points="256,-40 256,-59 348,-59 348,-40 256,-40"/>
<text text-anchor="start" x="259.5" y="-46.7" font-family="ipagp" font-size="12.00">エンティティ3</text>
<polygon fill="none" stroke="black" points="256,-2 256,-40 348,-40 348,-2 256,-2"/>
<text text-anchor="start" x="261" y="-26.2" font-family="ipagp" font-size="12.00">項目1</text>
<text text-anchor="start" x="261" y="-10.2" font-family="ipagp" font-size="12.00">項目2</text>
</g>
<!-- エンティティ2&#45;&gt;エンティティ3 -->
<g id="edge4" class="edge"><title>エンティティ2&#45;&gt;エンティティ3</title>
<path fill="none" stroke="black" d="M220.211,-31C228.458,-31 237.134,-31 245.628,-31"/>
<polygon fill="black" stroke="black" points="245.857,-34.5001 255.857,-31 245.857,-27.5001 245.857,-34.5001"/>
</g>
</g>
</svg>
