<?xml version="1.0" encoding="UTF-8" standalone="no"?>
<!DOCTYPE svg PUBLIC "-//W3C//DTD SVG 1.1//EN"
 "http://www.w3.org/Graphics/SVG/1.1/DTD/svg11.dtd">
<!-- Generated by graphviz version 2.26.3 (20100126.1600)
 -->
<!-- Title: ERDiagram Pages: 1 -->
<svg width="356pt" height="256pt"
 viewBox="0.00 0.00 356.00 256.00" xmlns="http://www.w3.org/2000/svg" xmlns:xlink="http://www.w3.org/1999/xlink">
<g id="graph1" class="graph" transform="scale(1 1) rotate(0) translate(4 252)">
<title>ERDiagram</title>
<polygon fill="white" stroke="white" points="-4,5 -4,-252 353,-252 353,5 -4,5"/>
<!-- エンティティ1 -->
<g id="node1" class="node"><title>エンティティ1</title>
<polygon fill="#a3a3a3" stroke="#a3a3a3" points="0,-101 0,-120 92,-120 92,-101 0,-101"/>
<polygon fill="none" stroke="black" points="0,-101 0,-120 92,-120 92,-101 0,-101"/>
<text text-anchor="start" x="3.5" y="-107.7" font-family="ipagp" font-size="12.00">エンティティ1</text>
<polygon fill="none" stroke="black" points="0,-63 0,-101 92,-101 92,-63 0,-63"/>
<text text-anchor="start" x="5" y="-87.2" font-family="ipagp" font-size="12.00">項目1</text>
<text text-anchor="start" x="5" y="-71.2" font-family="ipagp" font-size="12.00">項目2</text>
</g>
<!-- エンティティ2 -->
<g id="node2" class="node"><title>エンティティ2</title>
<polygon fill="#a3a3a3" stroke="#a3a3a3" points="128,-165 128,-184 220,-184 220,-165 128,-165"/>
<polygon fill="none" stroke="black" points="128,-165 128,-184 220,-184 220,-165 128,-165"/>
<text text-anchor="start" x="131.5" y="-171.7" font-family="ipagp" font-size="12.00">エンティティ2</text>
<polygon fill="none" stroke="black" points="128,-127 128,-165 220,-165 220,-127 128,-127"/>
<text text-anchor="start" x="133" y="-151.2" font-family="ipagp" font-size="12.00">項目1</text>
<text text-anchor="start" x="133" y="-135.2" font-family="ipagp" font-size="12.00">項目2</text>
</g>
<!-- エンティティ1&#45;&gt;エンティティ2 -->
<g id="edge2" class="edge"><title>エンティティ1&#45;&gt;エンティティ2</title>
<path fill="none" stroke="black" d="M92.2109,-115.105C103.812,-120.906 116.259,-127.13 127.857,-132.928"/>
</g>
<!-- エンティティ4 -->
<g id="node4" class="node"><title>エンティティ4</title>
<polygon fill="#a3a3a3" stroke="#a3a3a3" points="128,-37 128,-56 220,-56 220,-37 128,-37"/>
<polygon fill="none" stroke="black" points="128,-37 128,-56 220,-56 220,-37 128,-37"/>
<text text-anchor="start" x="131.5" y="-43.7" font-family="ipagp" font-size="12.00">エンティティ4</text>
<polygon fill="none" stroke="black" points="128,1 128,-37 220,-37 220,1 128,1"/>
<text text-anchor="start" x="133" y="-23.2" font-family="ipagp" font-size="12.00">項目1</text>
<text text-anchor="start" x="133" y="-7.2" font-family="ipagp" font-size="12.00">項目2</text>
</g>
<!-- エンティティ1&#45;&gt;エンティティ4 -->
<g id="edge6" class="edge"><title>エンティティ1&#45;&gt;エンティティ4</title>
<path fill="none" stroke="black" d="M101.323,-64.3384C110.174,-59.9132 119.249,-55.3753 127.857,-51.0716"/>
<polygon fill="black" stroke="black" points="99.59,-61.2918 92.2109,-68.8945 102.72,-67.5528 99.59,-61.2918"/>
</g>
<!-- エンティティ3 -->
<g id="node3" class="node"><title>エンティティ3</title>
<polygon fill="#a3a3a3" stroke="#a3a3a3" points="256,-229 256,-248 348,-248 348,-229 256,-229"/>
<polygon fill="none" stroke="black" points="256,-229 256,-248 348,-248 348,-229 256,-229"/>
<text text-anchor="start" x="259.5" y="-235.7" font-family="ipagp" font-size="12.00">エンティティ3</text>
<polygon fill="none" stroke="black" points="256,-191 256,-229 348,-229 348,-191 256,-191"/>
<text text-anchor="start" x="261" y="-215.2" font-family="ipagp" font-size="12.00">項目1</text>
<text text-anchor="start" x="261" y="-199.2" font-family="ipagp" font-size="12.00">項目2</text>
</g>
<!-- エンティティ2&#45;&gt;エンティティ3 -->
<g id="edge4" class="edge"><title>エンティティ2&#45;&gt;エンティティ3</title>
<path fill="none" stroke="black" d="M220.211,-179.105C228.821,-183.41 237.897,-187.949 246.747,-192.373"/>
<polygon fill="black" stroke="black" points="245.347,-195.587 255.857,-196.928 248.478,-189.326 245.347,-195.587"/>
</g>
<!-- エンティティ5 -->
<g id="node5" class="node"><title>エンティティ5</title>
<polygon fill="#a3a3a3" stroke="#a3a3a3" points="256,-101 256,-120 348,-120 348,-101 256,-101"/>
<polygon fill="none" stroke="black" points="256,-101 256,-120 348,-120 348,-101 256,-101"/>
<text text-anchor="start" x="259.5" y="-107.7" font-family="ipagp" font-size="12.00">エンティティ5</text>
<polygon fill="none" stroke="black" points="256,-63 256,-101 348,-101 348,-63 256,-63"/>
<text text-anchor="start" x="261" y="-87.2" font-family="ipagp" font-size="12.00">項目1</text>
<text text-anchor="start" x="261" y="-71.2" font-family="ipagp" font-size="12.00">項目2</text>
</g>
<!-- エンティティ2&#45;&gt;エンティティ5 -->
<g id="edge8" class="edge"><title>エンティティ2&#45;&gt;エンティティ5</title>
<path fill="none" stroke="black" d="M229.323,-128.338C235.131,-125.434 241.036,-122.482 246.843,-119.579"/>
<polygon fill="black" stroke="black" points="227.59,-125.292 220.211,-132.895 230.72,-131.553 227.59,-125.292"/>
<polygon fill="black" stroke="black" points="248.478,-122.674 255.857,-115.072 245.347,-116.413 248.478,-122.674"/>
</g>
</g>
</svg>
