<?xml version="1.0" encoding="UTF-8" standalone="no"?>
<!DOCTYPE svg PUBLIC "-//W3C//DTD SVG 1.1//EN"
 "http://www.w3.org/Graphics/SVG/1.1/DTD/svg11.dtd">
<!-- Generated by graphviz version 2.26.3 (20100126.1600)
 -->
<!-- Title: ERDiagram Pages: 1 -->
<svg width="228pt" height="64pt"
 viewBox="0.00 0.00 228.00 64.00" xmlns="http://www.w3.org/2000/svg" xmlns:xlink="http://www.w3.org/1999/xlink">
<g id="graph1" class="graph" transform="scale(1 1) rotate(0) translate(4 60)">
<title>ERDiagram</title>
<polygon fill="white" stroke="white" points="-4,5 -4,-60 225,-60 225,5 -4,5"/>
<!-- エンティティ1 -->
<g id="node1" class="node"><title>エンティティ1</title>
<polygon fill="#a3a3a3" stroke="#a3a3a3" points="0,-37 0,-56 92,-56 92,-37 0,-37"/>
<polygon fill="none" stroke="black" points="0,-37 0,-56 92,-56 92,-37 0,-37"/>
<text text-anchor="start" x="3.5" y="-43.7" font-family="ipagp" font-size="12.00">エンティティ1</text>
<polygon fill="none" stroke="black" points="0,1 0,-37 92,-37 92,1 0,1"/>
<text text-anchor="start" x="5" y="-23.2" font-family="ipagp" font-size="12.00">項目1</text>
<text text-anchor="start" x="5" y="-7.2" font-family="ipagp" font-size="12.00">項目2</text>
</g>
<!-- エンティティ2 -->
<g id="node2" class="node"><title>エンティティ2</title>
<polygon fill="#a3a3a3" stroke="#a3a3a3" points="128,-37 128,-56 220,-56 220,-37 128,-37"/>
<polygon fill="none" stroke="black" points="128,-37 128,-56 220,-56 220,-37 128,-37"/>
<text text-anchor="start" x="131.5" y="-43.7" font-family="ipagp" font-size="12.00">エンティティ2</text>
<polygon fill="none" stroke="black" points="128,1 128,-37 220,-37 220,1 128,1"/>
<text text-anchor="start" x="133" y="-23.2" font-family="ipagp" font-size="12.00">項目1</text>
<text text-anchor="start" x="133" y="-7.2" font-family="ipagp" font-size="12.00">項目2</text>
</g>
<!-- エンティティ1&#45;&gt;エンティティ2 -->
<g id="edge2" class="edge"><title>エンティティ1&#45;&gt;エンティティ2</title>
<path fill="none" stroke="black" d="M92.2109,-28C103.812,-28 116.259,-28 127.857,-28"/>
<text text-anchor="middle" x="118.794" y="-29.3262" font-family="ipagp" font-size="11.00">1</text>
<text text-anchor="middle" x="101.274" y="-20.8738" font-family="ipagp" font-size="11.00">0..*</text>
</g>
</g>
</svg>
